<?xml version="1.0" standalone="no"?>
<!DOCTYPE svg PUBLIC "-//W3C//DTD SVG 20010904//EN"
 "http://www.w3.org/TR/2001/REC-SVG-20010904/DTD/svg10.dtd">
<svg version="1.0" xmlns="http://www.w3.org/2000/svg"
 width="1280.000000pt" height="1156.000000pt" viewBox="0 0 1280.000000 1156.000000"
 preserveAspectRatio="xMidYMid meet">

<g transform="translate(0.000000,1156.000000) scale(0.100000,-0.100000)"
fill="#000000" stroke="none">
<path d="M0 5780 l0 -5780 6400 0 6400 0 0 5780 0 5780 -6400 0 -6400 0 0
-5780z m12788 3 l2 -5763 -6390 0 -6390 0 0 5758 c0 3167 3 5762 7 5765 3 4
2878 6 6387 5 l6381 -3 3 -5762z"/>
<path d="M3800 9786 c0 -11 28 -15 128 -20 987 -46 1843 -470 2477 -1226 180
-214 282 -392 329 -571 32 -122 78 -347 74 -361 -3 -9 -134 132 -271 291 -64
75 -119 117 -197 154 -36 17 -67 32 -69 33 -2 2 15 23 38 46 24 23 54 65 69
93 66 130 4 298 -136 367 -58 28 -176 31 -233 6 -54 -24 -117 -85 -146 -142
-55 -108 -24 -260 67 -339 l38 -33 -77 -36 c-89 -42 -181 -125 -223 -201 -54
-97 -70 -155 -77 -287 l-6 -125 -40 65 c-147 242 -415 507 -675 670 -168 105
-404 207 -590 255 -228 59 -563 74 -790 35 -274 -46 -500 -128 -725 -265 -500
-303 -835 -800 -935 -1386 -28 -164 -28 -476 0 -639 49 -288 150 -542 305
-775 84 -125 138 -191 248 -303 164 -167 334 -290 541 -391 504 -247 1071
-273 1586 -76 204 79 448 221 544 318 42 43 54 64 70 119 36 132 138 280 264
384 121 100 260 156 420 170 47 5 72 11 72 19 0 13 -43 25 -85 25 -12 0 -54
16 -93 35 -86 43 -152 113 -196 205 -28 59 -30 74 -31 170 0 97 2 110 31 170
71 148 190 231 354 246 122 12 236 -32 330 -127 235 -240 100 -645 -234 -702
-87 -15 -85 -32 2 -40 219 -18 438 -138 568 -311 58 -76 95 -147 131 -250 20
-57 26 -97 30 -201 5 -145 15 -114 -90 -305 -118 -216 -208 -332 -429 -551
-419 -416 -940 -712 -1518 -863 -242 -63 -543 -106 -747 -106 -85 0 -103 -3
-103 -15 0 -14 212 -15 1908 -13 l1907 3 56 28 c66 32 132 99 162 165 l22 47
5 1260 5 1260 757 3 758 2 2 -1258 3 -1257 33 -67 c35 -71 81 -117 162 -159
l45 -24 560 0 c554 0 560 0 607 22 66 30 141 104 172 169 l26 55 0 3148 0
3148 -30 61 c-36 72 -92 124 -169 161 l-56 26 -540 0 c-515 0 -542 -1 -594
-20 -72 -27 -154 -102 -189 -174 l-27 -56 -3 -1022 -2 -1023 -760 0 -760 0 -2
1028 -3 1027 -24 50 c-28 56 -93 125 -142 151 -88 45 -28 44 -2011 44 -1603 0
-1878 -2 -1878 -14z m1800 -26 c0 -6 62 -11 163 -12 128 -1 146 -3 87 -8 l-75
-6 75 -4 75 -3 -60 -7 c-33 -4 -52 -7 -42 -8 10 -1 17 -8 14 -14 -2 -7 -10
-12 -16 -10 -7 1 -10 -2 -6 -8 3 -6 11 -8 16 -5 5 4 9 1 9 -4 0 -6 -7 -11 -15
-11 -14 0 -15 -26 -13 -210 2 -116 1 -210 -2 -210 -3 0 -11 -9 -17 -19 -11
-17 -8 -22 20 -40 18 -11 28 -21 23 -21 -5 0 -3 -6 4 -14 10 -13 8 -13 -14 -3
-14 7 -26 15 -26 19 0 4 -13 14 -29 23 -16 8 -35 20 -43 27 -20 19 -76 58 -83
58 -3 0 -17 7 -31 17 -19 12 -22 18 -12 25 8 5 4 6 -13 3 -17 -4 -30 -1 -38 9
-8 9 -17 16 -22 16 -5 0 -37 17 -71 38 -67 40 -152 82 -167 82 -5 0 -11 4 -13
8 -1 4 -50 27 -108 51 -58 24 -109 47 -115 51 -5 4 -31 13 -57 20 -26 7 -45
16 -43 20 3 5 -4 6 -14 3 -11 -3 -32 2 -48 10 -55 30 -297 92 -488 126 l-110
19 653 1 c428 1 652 -2 652 -9z m413 -17 c-7 -2 -19 -2 -25 0 -7 3 -2 5 12 5
14 0 19 -2 13 -5z m-173 -459 c0 -14 -4 -23 -9 -20 -5 3 -7 15 -4 26 7 28 13
25 13 -6z m-7 -68 c6 -16 -2 -28 -14 -20 -12 7 -11 34 0 34 5 0 11 -6 14 -14z
m67 -76 c0 -5 -4 -10 -9 -10 -6 0 -13 5 -16 10 -3 6 1 10 9 10 9 0 16 -4 16
-10z m-19 -27 c13 -16 12 -17 -3 -4 -10 7 -18 15 -18 17 0 8 8 3 21 -13z m43
-27 c-6 -16 -24 -13 -24 5 0 6 5 7 11 3 8 -4 9 1 5 17 -6 19 -5 21 4 7 5 -9 7
-23 4 -32z m36 -27 c0 -6 9 -8 21 -4 19 6 20 5 8 -8 -10 -10 -19 -12 -31 -6
-24 13 -32 29 -14 29 9 0 16 -5 16 -11z m90 -69 c0 -5 -5 -10 -11 -10 -5 0 -7
5 -4 10 3 6 8 10 11 10 2 0 4 -4 4 -10z m20 -20 c0 -5 -5 -10 -11 -10 -5 0 -7
5 -4 10 3 6 8 10 11 10 2 0 4 -4 4 -10z m13 -406 c8 -8 -3 -34 -15 -34 -6 0
-5 6 2 15 10 12 9 15 -7 15 -10 0 -24 -5 -31 -12 -8 -8 -12 -9 -12 -1 0 18 49
31 63 17z m50 -11 c-7 -2 -19 -2 -25 0 -7 3 -2 5 12 5 14 0 19 -2 13 -5z
m-126 -19 c-3 -3 -12 -4 -19 -1 -8 3 -5 6 6 6 11 1 17 -2 13 -5z m170 0 c-3
-3 -12 -4 -19 -1 -8 3 -5 6 6 6 11 1 17 -2 13 -5z m-222 -43 c-3 -6 -11 -11
-17 -11 -6 0 -6 6 2 15 14 17 26 13 15 -4z m-39 -64 c-2 -18 -8 -42 -15 -53
-12 -19 -12 -18 -5 1 4 11 8 31 9 45 3 35 4 40 9 40 2 0 3 -15 2 -33z m54 23
c0 -5 -4 -10 -9 -10 -6 0 -13 5 -16 10 -3 6 1 10 9 10 9 0 16 -4 16 -10z
m-1870 -20 c30 -6 71 -15 90 -20 19 -5 67 -16 105 -26 104 -25 338 -119 440
-177 94 -53 242 -149 285 -185 174 -146 240 -208 304 -286 17 -21 37 -44 44
-51 6 -8 12 -18 12 -24 0 -6 4 -11 8 -11 9 0 82 -95 82 -107 0 -5 11 -21 25
-37 14 -16 25 -33 25 -37 0 -4 7 -15 16 -24 15 -15 15 -17 -2 -30 -18 -13 -18
-14 3 -8 18 4 25 0 33 -21 5 -15 19 -36 30 -48 19 -21 20 -21 22 -2 0 10 0 30
-1 44 -1 15 2 20 6 13 4 -6 6 40 5 102 -3 74 0 121 8 135 10 18 9 21 -1 15 -9
-6 -11 -3 -6 9 4 10 7 25 8 34 0 14 2 13 10 -3 7 -17 8 -16 7 10 -1 34 5 53
35 113 25 49 106 144 107 125 0 -7 -4 -13 -10 -13 -5 0 -10 -4 -10 -10 0 -5 7
-7 15 -4 8 4 15 1 15 -6 0 -7 7 -10 15 -6 8 3 15 2 15 -3 0 -5 -9 -11 -20 -14
-11 -3 -20 -1 -20 4 0 5 -3 9 -8 9 -4 0 -6 -20 -4 -45 2 -25 8 -45 13 -45 5 0
9 -251 9 -600 0 -527 2 -600 15 -600 9 0 15 -9 15 -25 0 -16 -6 -25 -15 -25
-8 0 -14 -5 -13 -12 2 -6 -6 -14 -17 -16 -11 -2 -34 -10 -52 -18 -40 -18 -54
-18 -29 1 11 8 15 15 8 15 -6 0 -17 -9 -25 -19 -7 -11 -40 -38 -73 -60 -65
-44 -116 -106 -157 -194 -24 -51 -27 -69 -27 -161 0 -117 19 -197 63 -261 14
-21 24 -42 21 -47 -3 -4 1 -8 9 -8 15 0 32 -27 28 -43 -1 -5 3 -6 9 -2 9 6 79
-43 108 -75 7 -8 11 -10 8 -3 -4 7 1 9 16 5 l22 -5 -23 -11 c-19 -8 -26 -7
-37 9 -8 10 -17 16 -20 12 -4 -4 -1 -13 6 -22 8 -10 9 -15 1 -15 -6 0 -11 4
-11 10 0 5 -7 7 -15 4 -8 -4 -13 -9 -10 -13 2 -4 -23 -15 -55 -25 -33 -10 -64
-24 -71 -32 -6 -8 -15 -14 -20 -14 -12 0 -121 -83 -166 -128 -90 -87 -172
-218 -212 -338 -29 -88 -47 -114 -115 -164 -73 -55 -240 -155 -321 -194 -33
-15 -71 -34 -85 -41 -21 -11 -134 -50 -275 -95 -42 -13 -119 -28 -250 -46
-222 -32 -511 -15 -725 43 -402 109 -726 310 -1000 620 -60 67 -69 79 -110
138 -19 28 -38 52 -41 55 -23 18 -147 258 -192 370 -102 257 -137 439 -137
720 0 324 59 579 200 865 51 103 149 269 169 285 4 3 20 23 36 46 41 56 142
170 189 213 22 20 53 49 70 65 77 72 347 255 368 248 4 -1 8 2 8 7 0 14 167
87 310 134 133 45 303 82 410 91 99 7 444 -2 500 -14z m1781 -51 c-5 -13 -10
-19 -10 -12 -1 15 10 45 15 40 3 -2 0 -15 -5 -28z m30 -103 c5 -6 9 -17 9 -25
-1 -10 -5 -7 -14 8 -7 13 -15 20 -18 15 -3 -5 -3 -3 -1 4 1 8 4 21 4 30 1 13
3 12 6 -3 3 -11 9 -24 14 -29z m-1 -61 c0 -5 -5 -3 -10 5 -5 8 -10 20 -10 25
0 6 5 3 10 -5 5 -8 10 -19 10 -25z m65 -25 c3 -5 2 -10 -4 -10 -5 0 -13 5 -16
10 -3 6 -2 10 4 10 5 0 13 -4 16 -10z m-10 -31 c4 -6 13 -8 21 -5 8 3 14 1 14
-4 0 -19 -19 -19 -41 0 -13 11 -19 19 -12 20 6 0 15 -5 18 -11z m-6 -143 c-12
-10 -49 -16 -49 -7 0 5 10 11 23 13 22 4 34 1 26 -6z m-69 -21 c0 -15 -71 -88
-78 -80 -4 4 1 13 12 20 10 8 15 18 11 24 -3 6 0 11 8 11 8 0 17 7 21 15 5 14
26 22 26 10z m80 -15 c0 -5 -12 -10 -27 -10 -22 0 -25 2 -13 10 20 13 40 13
40 0z m97 -1476 c-3 -3 -12 -4 -19 -1 -8 3 -5 6 6 6 11 1 17 -2 13 -5z m246
-687 c3 -9 -4 -13 -23 -13 -16 0 -27 3 -24 7 2 5 11 6 19 2 8 -3 15 0 15 6 0
15 7 14 13 -2z m-156 -161 c0 -8 -6 -12 -14 -9 -7 3 -10 9 -7 14 8 14 21 11
21 -5z m-62 -6 c-3 -5 -12 -10 -18 -10 -7 0 -6 4 3 10 19 12 23 12 15 0z m135
-20 c-12 -8 -12 -10 -1 -10 8 0 12 -2 9 -5 -3 -3 -13 -2 -22 1 -14 5 -15 9 -4
15 7 5 18 9 23 9 6 0 3 -5 -5 -10z m-73 -6 c-3 -3 -12 -4 -19 -1 -8 3 -5 6 6
6 11 1 17 -2 13 -5z m113 -1604 c0 -5 -5 -10 -11 -10 -5 0 -7 5 -4 10 3 6 8
10 11 10 2 0 4 -4 4 -10z m-80 -80 c0 -5 -5 -10 -11 -10 -5 0 -7 5 -4 10 3 6
8 10 11 10 2 0 4 -4 4 -10z m-140 -119 c0 -5 -7 -12 -16 -15 -14 -5 -15 -4 -4
9 14 17 20 19 20 6z m-75 -61 c-20 -22 -8 -28 15 -7 12 10 12 9 1 -5 -11 -15
-11 -18 -1 -18 8 0 11 -3 8 -6 -4 -3 -18 1 -33 9 l-28 14 24 16 c31 22 36 21
14 -3z m-69 -111 c12 -4 4 -6 -22 -5 -41 1 -43 5 -20 34 8 11 11 11 16 -4 4
-10 15 -21 26 -25z m9 21 c-3 -5 -11 -10 -16 -10 -6 0 -7 5 -4 10 3 6 11 10
16 10 6 0 7 -4 4 -10z m-91 -32 c-4 -7 -13 -20 -21 -29 -12 -14 -12 -17 1 -22
9 -4 20 1 25 11 10 16 10 16 11 0 0 -11 -12 -21 -32 -27 -18 -5 -25 -10 -15
-10 17 -1 17 -17 15 -245 -3 -216 -1 -243 12 -233 13 10 13 10 2 -5 -8 -9 -23
-19 -35 -21 -12 -2 68 -5 177 -6 110 0 197 -3 195 -5 -2 -2 -418 -6 -924 -9
-610 -4 -900 -2 -860 4 109 18 376 80 420 99 11 4 40 13 65 20 51 13 212 72
280 102 161 70 340 161 387 196 19 14 40 22 48 18 10 -4 14 -2 9 6 -5 7 2 9
22 5 16 -3 23 -4 17 -1 -18 8 -16 24 2 24 8 0 15 4 15 9 0 15 82 64 89 53 8
-13 28 -2 33 18 2 8 17 24 33 36 36 27 38 28 29 12z"/>
<path d="M5751 9694 c0 -11 3 -14 6 -6 3 7 2 16 -1 19 -3 4 -6 -2 -5 -13z"/>
<path d="M5472 9385 c2 -1 12 -7 24 -13 15 -8 21 -8 21 1 0 7 -11 13 -24 13
-14 1 -23 1 -21 -1z"/>
<path d="M5530 9386 c0 -2 11 -6 25 -8 13 -3 22 -1 19 3 -5 9 -44 13 -44 5z"/>
<path d="M5620 9312 c0 -12 19 -26 26 -19 2 2 -2 10 -11 17 -9 8 -15 8 -15 2z"/>
<path d="M5756 9231 c-4 -7 -5 -15 -2 -18 9 -9 19 4 14 18 -4 11 -6 11 -12 0z"/>
<path d="M5725 7840 c-3 -5 1 -10 9 -10 9 0 13 -6 10 -14 -3 -8 -1 -17 5 -21
12 -7 15 14 5 39 -7 18 -20 21 -29 6z"/>
<path d="M5751 7674 c0 -11 3 -14 6 -6 3 7 2 16 -1 19 -3 4 -6 -2 -5 -13z"/>
<path d="M5660 7595 c0 -27 3 -45 7 -41 7 7 5 77 -3 85 -2 2 -4 -17 -4 -44z"/>
<path d="M5754 7455 c0 -60 1 -84 3 -52 2 32 2 81 0 110 -2 29 -3 3 -3 -58z"/>
<path d="M5640 7361 c0 -6 4 -13 10 -16 6 -3 7 1 4 9 -7 18 -14 21 -14 7z"/>
<path d="M5628 6503 c7 -3 16 -2 19 1 4 3 -2 6 -13 5 -11 0 -14 -3 -6 -6z"/>
<path d="M5609 6463 c-13 -15 -12 -15 9 -4 23 12 28 21 13 21 -5 0 -15 -7 -22
-17z"/>
<path d="M5558 6423 c7 -3 16 -2 19 1 4 3 -2 6 -13 5 -11 0 -14 -3 -6 -6z"/>
<path d="M5527 6391 c-4 -17 -3 -21 5 -13 5 5 8 16 6 23 -3 8 -7 3 -11 -10z"/>
<path d="M5450 6280 c-9 -6 -10 -10 -3 -10 6 0 15 5 18 10 8 12 4 12 -15 0z"/>
<path d="M5447 5893 c-4 -3 -7 -11 -7 -17 0 -6 5 -5 12 2 6 6 9 14 7 17 -3 3
-9 2 -12 -2z"/>
<path d="M5520 5741 c0 -6 4 -13 10 -16 6 -3 7 1 4 9 -7 18 -14 21 -14 7z"/>
<path d="M5525 5630 c-3 -6 1 -7 9 -4 18 7 21 14 7 14 -6 0 -13 -4 -16 -10z"/>
<path d="M5560 5620 c-13 -8 -13 -10 2 -10 9 0 20 5 23 10 8 13 -5 13 -25 0z"/>
<path d="M5660 3523 c0 -5 5 -15 10 -23 7 -12 9 -10 7 8 -1 19 -17 33 -17 15z"/>
<path d="M5645 3490 c3 -5 8 -10 11 -10 2 0 4 5 4 10 0 6 -5 10 -11 10 -5 0
-7 -4 -4 -10z"/>
<path d="M5560 3450 c0 -5 5 -10 10 -10 6 0 10 5 10 10 0 6 -4 10 -10 10 -5 0
-10 -4 -10 -10z"/>
<path d="M5175 3260 c-3 -6 1 -7 9 -4 18 7 21 14 7 14 -6 0 -13 -4 -16 -10z"/>
</g>
</svg>
